<svg xmlns="http://www.w3.org/2000/svg" width="2642" height="1778" version="1.1" viewBox="0 0 2642 1778"><title>Devices/Nexus 9 - Landscape</title><desc>Created with Sketch.</desc><g id="Devices/Nexus-9---Landscape" fill="none" fill-rule="evenodd" stroke="none" stroke-width="1"><g id="Nexus-9---Landscape" fill-rule="nonzero" transform="translate(12.345794, 12.345794)"><rect id="Body" width="2629.654" height="1765.449" x="-6.173" y="-6.173" fill="#204A69" stroke="#204A69" stroke-width="12.346" rx="69.96"/><circle id="Camera" cx="135.804" cy="876.551" r="16.461" fill="#23354B"/><path id="Shape" fill="#23354B" d="M1065.70525,2166.68692 L1551.60316,2166.68692 C1555.34567,2166.68692 1558.79299,2168.71923 1560.60502,2171.99382 L1567.91589,2185.20561 L1049.39252,2185.20561 L1056.7034,2171.99382 C1058.51542,2168.71923 1061.96274,2166.68692 1065.70525,2166.68692 Z M1551.60316,-413.584112 L1065.70525,-413.584112 C1061.96274,-413.584112 1058.51542,-415.616423 1056.7034,-418.891013 L1049.39252,-432.102804 L1567.91589,-432.102804 L1560.60502,-418.891013 C1558.79299,-415.616423 1555.34567,-413.584112 1551.60316,-413.584112 Z" transform="translate(1308.654206, 876.551402) rotate(-90.000000) translate(-1308.654206, -876.551402)"/></g></g></svg>